<svg xmlns="http://www.w3.org/2000/svg" width="627" height="628" viewBox="0 0 627 628" fill="none">
  <g opacity="0.1">
    <path d="M309.577 123.084C125.742 132.155 -34.8059 321.635 57.8469 495.918C19.8542 442.235 0 378.993 0 313.791C0 166.961 101.232 43.6642 237.515 9.59197C237.624 9.58115 237.732 9.57044 237.84 9.55985C237.813 9.55983 237.786 9.55983 237.759 9.55983V9.3147C262.025 3.43173 287.272 0 313.499 0C383.602 0 448.557 23.2868 500.521 62.2614L308.107 233.848L309.577 123.084Z" fill="url(#paint0_linear_3383_32331)"/>
    <path d="M627 313.736V314.962H626.755C626.755 337.978 624.425 360.147 619.567 381.665C619.393 383.34 619.175 385.051 618.912 386.798C586.067 525.048 462.039 628 313.746 628C273.057 628 234.084 620.156 198.297 605.939C133.342 579.956 84.0738 527.989 63.4842 460.826H63.7293C43.3849 394.152 54.9052 322.085 94.8588 264.972C73.5339 338.754 95.8393 418.419 152.706 470.385C209.572 522.352 290.95 538.04 362.768 510.341C434.097 482.887 483.855 417.929 491.943 341.941C492.219 341.739 492.496 341.54 492.774 341.341C492.331 341.455 491.89 341.568 491.452 341.68L272.565 398.058L571.359 135.531C606.656 186.026 627 247.553 627 313.736Z" fill="url(#paint1_linear_3383_32331)"/>
  </g>
  <defs>
    <linearGradient id="paint0_linear_3383_32331" x1="313.5" y1="0" x2="313.5" y2="628" gradientUnits="userSpaceOnUse">
      <stop stop-color="white"/>
      <stop offset="1" stop-color="white" stop-opacity="0"/>
    </linearGradient>
    <linearGradient id="paint1_linear_3383_32331" x1="313.5" y1="0" x2="313.5" y2="628" gradientUnits="userSpaceOnUse">
      <stop stop-color="white"/>
      <stop offset="1" stop-color="white" stop-opacity="0"/>
    </linearGradient>
  </defs>
</svg>