<svg width="34" height="42" viewBox="0 0 34 42" fill="none" xmlns="http://www.w3.org/2000/svg">
<g id="Award-Ribbon-Star-1--Streamline-Ultimate">
<g id="Group">
<path id="Vector" d="M4.84129 26.2317C4.80582 26.1834 4.75939 26.1443 4.70585 26.1175C4.6523 26.0908 4.59316 26.0771 4.53329 26.0777C4.47272 26.0799 4.41378 26.0979 4.36225 26.1298C4.31071 26.1617 4.26834 26.2065 4.23929 26.2597L0.87929 32.0557C0.752726 32.2819 0.691493 32.5389 0.702415 32.798C0.713337 33.0571 0.795985 33.308 0.941148 33.5228C1.08631 33.7377 1.28828 33.908 1.52455 34.0148C1.76083 34.1216 2.02211 34.1606 2.27929 34.1277L5.62529 33.5677L6.78729 36.7737C6.87918 37.0222 7.0397 37.2395 7.2502 37.4004C7.4607 37.5613 7.71253 37.6592 7.97645 37.6826C8.24036 37.7061 8.50551 37.6542 8.74109 37.5329C8.97667 37.4117 9.17301 37.2261 9.30729 36.9977L12.1073 32.3217C12.1318 32.2765 12.1446 32.226 12.1446 32.1747C12.1446 32.1233 12.1318 32.0728 12.1073 32.0277C12.0898 31.9794 12.062 31.9356 12.0257 31.8993C11.9894 31.863 11.9455 31.8351 11.8973 31.8177C9.00569 30.7631 6.53124 28.8041 4.84129 26.2317Z" fill="white"/>
<path id="Vector_2" d="M32.7142 32.0558L29.3962 26.2178C29.3665 26.1662 29.3236 26.1235 29.2719 26.094C29.2203 26.0645 29.1617 26.0492 29.1022 26.0498C29.0441 26.0478 28.9864 26.0609 28.9349 26.0879C28.8834 26.1149 28.8397 26.1548 28.8082 26.2038C27.1037 28.7831 24.6154 30.7463 21.7102 31.8038C21.6154 31.8435 21.54 31.9189 21.5002 32.0138C21.4757 32.0589 21.4629 32.1094 21.4629 32.1608C21.4629 32.2121 21.4757 32.2626 21.5002 32.3078L24.3002 37.0118C24.4357 37.2398 24.6331 37.4247 24.8695 37.5448C25.1059 37.665 25.3716 37.7156 25.6356 37.6907C25.8996 37.6657 26.1511 37.5663 26.3609 37.404C26.5706 37.2417 26.7299 37.0231 26.8202 36.7738L27.9822 33.5678L31.3282 34.1278C31.5921 34.1763 31.8643 34.1479 32.1125 34.0462C32.3607 33.9444 32.5744 33.7735 32.7282 33.5538C32.868 33.3284 32.9409 33.0679 32.9384 32.8027C32.936 32.5375 32.8582 32.2785 32.7142 32.0558Z" fill="white"/>
<path id="Vector_3" d="M29.0195 18.3218C29.0195 15.8977 28.3004 13.5282 26.9531 11.5131C25.6058 9.49801 23.6909 7.92792 21.4509 7.00157C19.2109 6.07523 16.7464 5.83428 14.3694 6.30922C11.9923 6.78416 9.80965 7.95365 8.09757 9.66964C6.3855 11.3856 5.22102 13.571 4.75151 15.9491C4.28201 18.3272 4.5286 20.7912 5.46007 23.0291C6.39154 25.267 7.96601 27.1782 9.98419 28.5209C12.0024 29.8636 14.3735 30.5773 16.7975 30.5718C20.0416 30.5643 23.1502 29.2704 25.4415 26.9739C27.7328 24.6774 29.0195 21.5658 29.0195 18.3218ZM21.6695 23.1098C21.7407 23.2711 21.7584 23.4509 21.72 23.623C21.6816 23.7951 21.5891 23.9503 21.4562 24.0661C21.3232 24.1819 21.1567 24.2521 20.9809 24.2664C20.8052 24.2807 20.6295 24.2384 20.4795 24.1458L16.9515 22.1578C16.8972 22.1306 16.8373 22.1165 16.7765 22.1165C16.7158 22.1165 16.6559 22.1306 16.6015 22.1578L13.0735 24.1458C12.9236 24.2384 12.7479 24.2807 12.5721 24.2664C12.3964 24.2521 12.2299 24.1819 12.0969 24.0661C11.9639 23.9503 11.8715 23.7951 11.8331 23.623C11.7947 23.4509 11.8124 23.2711 11.8835 23.1098L13.2835 19.8058C13.3114 19.7397 13.3182 19.6666 13.3032 19.5965C13.2882 19.5264 13.252 19.4626 13.1995 19.4138L10.6515 16.8658C10.5183 16.762 10.4221 16.6181 10.3773 16.4553C10.3324 16.2925 10.3414 16.1196 10.4027 15.9622C10.4641 15.8049 10.5746 15.6716 10.7178 15.5822C10.861 15.4927 11.0293 15.4519 11.1975 15.4658H14.1655C14.2323 15.4672 14.2981 15.4495 14.3552 15.4148C14.4122 15.3801 14.4582 15.3297 14.4875 15.2698L16.0275 12.0778C16.1011 11.9434 16.2095 11.8313 16.3412 11.7533C16.473 11.6752 16.6234 11.634 16.7765 11.634C16.9297 11.634 17.0801 11.6752 17.2118 11.7533C17.3436 11.8313 17.452 11.9434 17.5255 12.0778L19.0655 15.2558C19.0925 15.3146 19.136 15.3645 19.1906 15.3992C19.2452 15.434 19.3088 15.4522 19.3735 15.4518H22.3975C22.5671 15.4343 22.7377 15.4726 22.8835 15.5607C23.0293 15.6489 23.1425 15.7822 23.2058 15.9405C23.2691 16.0987 23.2791 16.2732 23.2343 16.4377C23.1895 16.6021 23.0923 16.7475 22.9575 16.8518L20.2975 19.4138C20.2491 19.4652 20.2166 19.5297 20.2042 19.5993C20.1918 19.6689 20.1999 19.7407 20.2275 19.8058L21.6695 23.1098Z" fill="#30C41A"/>
</g>
</g>
</svg>
