<svg width="19" height="18" viewBox="0 0 19 18" fill="none" xmlns="http://www.w3.org/2000/svg">
<g id="vuesax/outline/calendar">
<g id="calendar">
<path id="Vector" d="M6.84375 4.3125C6.53625 4.3125 6.28125 4.0575 6.28125 3.75V1.5C6.28125 1.1925 6.53625 0.9375 6.84375 0.9375C7.15125 0.9375 7.40625 1.1925 7.40625 1.5V3.75C7.40625 4.0575 7.15125 4.3125 6.84375 4.3125Z" fill="#88888E"/>
<path id="Vector_2" d="M12.8438 4.3125C12.5363 4.3125 12.2812 4.0575 12.2812 3.75V1.5C12.2812 1.1925 12.5363 0.9375 12.8438 0.9375C13.1512 0.9375 13.4062 1.1925 13.4062 1.5V3.75C13.4062 4.0575 13.1512 4.3125 12.8438 4.3125Z" fill="#88888E"/>
<path id="Vector_3" d="M7.21875 10.8752C7.12125 10.8752 7.02375 10.8527 6.93375 10.8152C6.83625 10.7777 6.76125 10.7252 6.68625 10.6577C6.55125 10.5152 6.46875 10.3277 6.46875 10.1252C6.46875 10.0277 6.49125 9.93023 6.52875 9.84023C6.56625 9.75023 6.61875 9.66774 6.68625 9.59274C6.76125 9.52524 6.83625 9.47272 6.93375 9.43522C7.20375 9.32272 7.54125 9.38274 7.75125 9.59274C7.88625 9.73524 7.96875 9.93023 7.96875 10.1252C7.96875 10.1702 7.96125 10.2227 7.95375 10.2752C7.94625 10.3202 7.93125 10.3652 7.90875 10.4102C7.89375 10.4552 7.87125 10.5002 7.84125 10.5452C7.81875 10.5827 7.78125 10.6202 7.75125 10.6577C7.60875 10.7927 7.41375 10.8752 7.21875 10.8752Z" fill="#88888E"/>
<path id="Vector_4" d="M9.84375 10.8751C9.74625 10.8751 9.64875 10.8527 9.55875 10.8152C9.46125 10.7777 9.38625 10.7251 9.31125 10.6576C9.17625 10.5151 9.09375 10.3276 9.09375 10.1251C9.09375 10.0276 9.11625 9.93015 9.15375 9.84015C9.19125 9.75015 9.24375 9.66766 9.31125 9.59266C9.38625 9.52516 9.46125 9.47264 9.55875 9.43514C9.82875 9.31514 10.1662 9.38266 10.3762 9.59266C10.5112 9.73516 10.5938 9.93015 10.5938 10.1251C10.5938 10.1701 10.5862 10.2227 10.5787 10.2752C10.5712 10.3202 10.5562 10.3652 10.5337 10.4102C10.5187 10.4552 10.4963 10.5001 10.4663 10.5451C10.4438 10.5826 10.4062 10.6201 10.3762 10.6576C10.2337 10.7926 10.0387 10.8751 9.84375 10.8751Z" fill="#88888E"/>
<path id="Vector_5" d="M12.4688 10.8751C12.3713 10.8751 12.2737 10.8527 12.1837 10.8152C12.0862 10.7777 12.0113 10.7251 11.9363 10.6576C11.9063 10.6201 11.8762 10.5826 11.8462 10.5451C11.8162 10.5001 11.7938 10.4552 11.7788 10.4102C11.7563 10.3652 11.7413 10.3202 11.7338 10.2752C11.7263 10.2227 11.7188 10.1701 11.7188 10.1251C11.7188 9.93015 11.8013 9.73516 11.9363 9.59266C12.0113 9.52516 12.0862 9.47264 12.1837 9.43514C12.4612 9.31514 12.7912 9.38266 13.0012 9.59266C13.1362 9.73516 13.2188 9.93015 13.2188 10.1251C13.2188 10.1701 13.2112 10.2227 13.2037 10.2752C13.1962 10.3202 13.1812 10.3652 13.1587 10.4102C13.1437 10.4552 13.1213 10.5001 13.0913 10.5451C13.0688 10.5826 13.0312 10.6201 13.0012 10.6576C12.8587 10.7926 12.6637 10.8751 12.4688 10.8751Z" fill="#88888E"/>
<path id="Vector_6" d="M7.21875 13.4999C7.12125 13.4999 7.02375 13.4774 6.93375 13.4399C6.84375 13.4024 6.76125 13.3499 6.68625 13.2824C6.55125 13.1399 6.46875 12.9449 6.46875 12.7499C6.46875 12.6524 6.49125 12.5549 6.52875 12.4649C6.56625 12.3674 6.61875 12.2849 6.68625 12.2174C6.96375 11.9399 7.47375 11.9399 7.75125 12.2174C7.88625 12.3599 7.96875 12.5549 7.96875 12.7499C7.96875 12.9449 7.88625 13.1399 7.75125 13.2824C7.60875 13.4174 7.41375 13.4999 7.21875 13.4999Z" fill="#88888E"/>
<path id="Vector_7" d="M9.84375 13.4999C9.64875 13.4999 9.45375 13.4174 9.31125 13.2824C9.17625 13.1399 9.09375 12.9449 9.09375 12.7499C9.09375 12.6524 9.11625 12.5549 9.15375 12.4649C9.19125 12.3674 9.24375 12.2849 9.31125 12.2174C9.58875 11.9399 10.0987 11.9399 10.3762 12.2174C10.4437 12.2849 10.4962 12.3674 10.5337 12.4649C10.5712 12.5549 10.5938 12.6524 10.5938 12.7499C10.5938 12.9449 10.5112 13.1399 10.3762 13.2824C10.2337 13.4174 10.0387 13.4999 9.84375 13.4999Z" fill="#88888E"/>
<path id="Vector_8" d="M12.4688 13.5002C12.2738 13.5002 12.0788 13.4177 11.9363 13.2827C11.8688 13.2152 11.8163 13.1327 11.7788 13.0352C11.7413 12.9452 11.7188 12.8477 11.7188 12.7502C11.7188 12.6527 11.7413 12.5552 11.7788 12.4652C11.8163 12.3677 11.8688 12.2852 11.9363 12.2177C12.1088 12.0452 12.3712 11.9627 12.6112 12.0152C12.6637 12.0227 12.7088 12.0377 12.7538 12.0602C12.7988 12.0752 12.8438 12.0977 12.8888 12.1277C12.9263 12.1502 12.9637 12.1877 13.0012 12.2177C13.1362 12.3602 13.2188 12.5552 13.2188 12.7502C13.2188 12.9452 13.1362 13.1402 13.0012 13.2827C12.8587 13.4177 12.6637 13.5002 12.4688 13.5002Z" fill="#88888E"/>
<path id="Vector_9" d="M16.2188 7.37988H3.46875C3.16125 7.37988 2.90625 7.12488 2.90625 6.81738C2.90625 6.50988 3.16125 6.25488 3.46875 6.25488H16.2188C16.5262 6.25488 16.7812 6.50988 16.7812 6.81738C16.7812 7.12488 16.5262 7.37988 16.2188 7.37988Z" fill="#88888E"/>
<path id="Vector_10" d="M12.8438 17.0625H6.84375C4.10625 17.0625 2.53125 15.4875 2.53125 12.75V6.375C2.53125 3.6375 4.10625 2.0625 6.84375 2.0625H12.8438C15.5813 2.0625 17.1562 3.6375 17.1562 6.375V12.75C17.1562 15.4875 15.5813 17.0625 12.8438 17.0625ZM6.84375 3.1875C4.69875 3.1875 3.65625 4.23 3.65625 6.375V12.75C3.65625 14.895 4.69875 15.9375 6.84375 15.9375H12.8438C14.9887 15.9375 16.0312 14.895 16.0312 12.75V6.375C16.0312 4.23 14.9887 3.1875 12.8438 3.1875H6.84375Z" fill="#88888E"/>
</g>
</g>
</svg>
