<svg width="135" height="108" viewBox="0 0 135 108" fill="none" xmlns="http://www.w3.org/2000/svg">
<g id="Group">
<path id="Vector" fill-rule="evenodd" clip-rule="evenodd" d="M113.096 74.0446C113.096 74.0446 124.619 79.4513 129.556 79.4513C132.538 79.4513 134.963 77.0265 134.963 74.0446C134.963 71.0627 132.538 68.6379 129.556 68.6379C124.619 68.6379 113.096 74.0446 113.096 74.0446Z" fill="#63A147"/>
<path id="Vector_2" fill-rule="evenodd" clip-rule="evenodd" d="M60.9164 21.8671C60.9164 21.8671 55.5098 10.3437 55.5098 5.4067C55.5098 2.42482 57.9346 0 60.9164 0C63.8983 0 66.3232 2.42482 66.3232 5.4067C66.3232 10.3437 60.9164 21.8671 60.9164 21.8671Z" fill="#63A147"/>
<path id="Vector_3" fill-rule="evenodd" clip-rule="evenodd" d="M11.8634 43.6468C11.8634 43.6468 4.35954 42.915 1.83641 41.4295C0.318167 40.5229 -0.184273 38.5568 0.711383 37.0386C1.61796 35.5203 3.58404 35.0179 5.10229 35.9136C7.61449 37.41 11.8525 43.6468 11.8525 43.6468H11.8634Z" fill="#D4D3E2"/>
<path id="Vector_4" fill-rule="evenodd" clip-rule="evenodd" d="M32.1797 24.0079C32.1797 24.0079 26.0412 19.6279 24.6103 17.072C23.7474 15.5319 24.2935 13.5768 25.8336 12.7139C27.3737 11.851 29.3289 12.3971 30.1918 13.9372C31.6226 16.4931 32.1797 24.0079 32.1797 24.0079Z" fill="#D4D3E2"/>
<path id="Vector_5" fill-rule="evenodd" clip-rule="evenodd" d="M87.8848 25.6244C87.8848 25.6244 88.7914 18.1314 90.3533 15.652C91.2926 14.1556 93.2696 13.6969 94.766 14.6362C96.2624 15.5756 96.7212 17.5525 95.7818 19.0489C94.2308 21.5284 87.8848 25.6135 87.8848 25.6135V25.6244Z" fill="#D4D3E2"/>
<path id="Vector_6" fill-rule="evenodd" clip-rule="evenodd" d="M107.238 46.8361C107.238 46.8361 111.826 40.8505 114.425 39.4961C115.998 38.6769 117.932 39.2995 118.74 40.8614C119.548 42.4343 118.936 44.3676 117.374 45.1759C114.775 46.5194 107.238 46.8252 107.238 46.8252V46.8361Z" fill="#D4D3E2"/>
<path id="Vector_7" fill-rule="evenodd" clip-rule="evenodd" d="M105.405 99.8984C105.405 99.8984 112.92 100.543 115.454 102.006C116.983 102.891 117.508 104.857 116.623 106.386C115.738 107.916 113.783 108.44 112.243 107.555C109.709 106.091 105.395 99.8984 105.395 99.8984H105.405Z" fill="#D4D3E2"/>
<path id="Vector_8" fill-rule="evenodd" clip-rule="evenodd" d="M61.0143 29.4912C61.0143 29.4912 57.6829 60.0964 57.6829 73.2145C57.6829 75.0495 59.1684 76.5459 61.0143 76.5459C62.8602 76.5459 64.3457 75.0495 64.3457 73.2145C64.3457 60.0964 61.0143 29.4912 61.0143 29.4912Z" fill="#362F93"/>
<path id="Vector_9" fill-rule="evenodd" clip-rule="evenodd" d="M96.0545 73.7715C96.0545 73.7715 71.5332 70.44 61.0365 70.44C59.2015 70.44 57.7051 71.9255 57.7051 73.7715C57.7051 75.6174 59.1906 77.1029 61.0365 77.1029C71.5441 77.1029 96.0545 73.7715 96.0545 73.7715Z" fill="#362F93"/>
</g>
</svg>
