<svg width="65" height="65" viewBox="0 0 65 65" fill="none" xmlns="http://www.w3.org/2000/svg">
<g id="Component 23">
<path id="Vector" fill-rule="evenodd" clip-rule="evenodd" d="M29.8417 28.7375L36.1775 24.9679C37.4336 24.2016 39.0481 24.3752 40.1124 25.391L53.1794 38.0209C54.1631 38.9716 55.7155 38.9971 56.7299 38.0788L57.6702 37.2277C57.6941 37.2061 57.7175 37.1837 57.7403 37.1609C65.278 29.6233 63.3838 18.652 57.2886 12.5754C54.1943 9.49048 49.9259 7.54209 45.1019 7.8842C40.7632 8.19192 36.2139 10.3333 31.8452 14.7266C31.8447 14.7271 31.8458 14.727 31.8452 14.7266C31.8447 14.7261 31.8421 14.7261 31.8416 14.7266C31.3345 15.24 30.8592 15.7464 30.4231 16.2394L24.6279 22.0334C22.8823 23.7787 22.9712 26.635 24.8221 28.2684C26.2158 29.4982 28.2441 29.6877 29.8417 28.7375ZM49.9709 44.1971C51.0856 43.1882 51.1142 41.4466 50.033 40.4016L39.2033 29.9341C38.3601 29.1193 37.0757 28.9699 36.0681 29.5692L31.8348 32.0879C28.7821 33.9041 24.906 33.5418 22.2425 31.1915C18.7056 28.0701 18.5356 22.6118 21.8715 19.2765L27.5847 13.5643C28.2773 12.7871 28.1996 11.5715 27.3284 11.0016C24.3952 9.08283 21.4405 8.07957 18.5773 7.87209C13.7485 7.52221 9.47122 9.45961 6.36952 12.5394C0.255308 18.6106 -1.62973 29.583 5.9483 37.1611C5.97102 37.1837 5.99425 37.2058 6.01803 37.2274L27.042 56.2708C28.7514 57.8192 31.0229 58.3957 33.151 58.0001C34.7517 57.7026 34.9193 55.7403 33.7399 54.6178L26.477 47.7042C25.6972 46.9619 25.6668 45.7282 26.409 44.9482C27.1512 44.1685 28.3852 44.1381 29.1649 44.8804L37.1924 52.5217C38.178 53.4599 39.7205 53.4789 40.7291 52.5654L41.2565 52.0877C42.3766 51.0733 42.3982 49.3208 41.3038 48.2789L33.7461 41.0848C32.9662 40.3426 32.9358 39.1088 33.678 38.3291C34.4203 37.5492 35.6541 37.5187 36.434 38.261L44.4803 45.9203C45.4658 46.8585 47.0083 46.8777 48.017 45.9642L49.4519 44.6644C49.4748 44.6455 49.4971 44.6262 49.5192 44.606L49.5213 44.6041L49.9709 44.1971Z" fill="url(#paint0_linear_1626_5040)"/>
</g>
<defs>
<linearGradient id="paint0_linear_1626_5040" x1="-3.97333" y1="-43.3236" x2="67.8544" y2="-39.2041" gradientUnits="userSpaceOnUse">
<stop stop-color="#7FB546"/>
<stop offset="0.2" stop-color="#75AE4C"/>
<stop offset="0.4" stop-color="#63A056"/>
<stop offset="0.6" stop-color="#509161"/>
<stop offset="0.8" stop-color="#2D7675"/>
<stop offset="0.95" stop-color="#282D93"/>
</linearGradient>
</defs>
</svg>
