<svg width="79" height="79" viewBox="0 0 79 79" fill="none" xmlns="http://www.w3.org/2000/svg">
<g id="education 1">
<path id="Union" fill-rule="evenodd" clip-rule="evenodd" d="M22.337 42.9305C22.3134 41.594 22.7593 40.4492 23.6274 39.6221C25.3068 38.0205 28.1201 37.9955 30.4689 39.5616C31.0486 39.9478 31.5803 39.8955 33.9405 37.7519L33.9436 37.7491C35.0947 36.704 36.2844 35.624 37.6918 35.0576C39.4809 34.338 41.2141 34.6344 42.8438 35.9377C45.5399 38.0946 45.6465 40.8615 44.9967 43.7069L51.3841 40.7011C51.5478 40.624 51.7264 40.584 51.9073 40.584C52.0882 40.584 52.2669 40.624 52.4305 40.7011L55.6211 42.2025C54.9205 41.2962 54.4258 40.351 53.9576 39.4556C52.814 37.2678 51.8261 35.3784 47.9227 34.4029C45.1884 33.7192 42.9457 32.5275 41.4375 30.9563C39.9712 29.4288 39.2811 27.6338 39.4943 25.9024C39.8662 22.8765 42.8089 20.9215 46.9911 20.9215C51.2193 20.9215 54.5011 18.9829 56.6878 17.1063C55.9108 15.9897 55.0547 14.9303 54.1261 13.9361C50.5027 16.6243 47.3161 17.2899 45.0804 15.7994C43.9349 15.0356 42.5151 15.4945 40.4808 16.2811L40.4801 16.2814C39.3896 16.703 38.0897 17.2056 36.836 17.2057C35.6773 17.2057 34.5582 16.7768 33.6795 15.4587C32.176 13.2035 33.4871 9.77145 37.5715 5.24338C32.3001 4.47161 26.9179 5.20585 22.0458 7.3614C23.6922 8.45867 25.5277 9.89603 27.0282 11.6256C29.7558 14.7688 30.6678 18.0101 29.739 21.2593C28.3892 25.9835 25.6299 27.1607 23.4128 28.1065L23.4126 28.1065C21.2566 29.0263 19.9551 29.5816 19.9551 33.2106C19.9551 36.676 19.3624 42.763 15.3928 44.5944C14.6575 44.9303 13.8575 45.1008 13.0492 45.094C11.2555 45.094 9.19707 44.3337 6.89102 42.8205C8.50477 47.2557 11.1993 51.2183 14.7306 54.3496C18.2619 57.4809 22.5185 59.682 27.1149 60.7535C26.7858 56.7632 25.9482 50.9136 23.8169 47.3601C22.8584 45.7639 22.3608 44.2734 22.337 42.9305ZM35.7234 14.0946C36.2943 14.951 36.8714 15.041 39.5934 13.9881L39.5936 13.988C41.6239 13.2029 44.1509 12.2257 46.4429 13.7538C48.0502 14.8253 50.7023 13.34 52.3424 12.1861C48.9399 9.12329 44.8436 6.93391 40.4067 5.80664C35.9635 10.4137 35.0895 13.1437 35.7234 14.0946ZM41.924 26.2041C41.6765 28.2143 43.8595 30.8575 48.5089 32.0201C53.4829 33.263 54.8871 35.9485 56.1259 38.3177L56.1262 38.3182C57.0452 40.0763 57.8566 41.6261 60.0705 42.7721C61.4484 38.9275 61.9774 34.83 61.6211 30.7615C61.2647 26.693 60.0315 22.7499 58.0062 19.2033C55.4856 21.2946 51.7712 23.381 46.982 23.381C44.1205 23.381 42.135 24.4892 41.924 26.2041ZM17.4932 33.2095C17.4932 38.0348 16.3217 41.4562 14.3595 42.3616C12.4789 43.2291 9.5194 42.0435 5.78781 38.9325C4.58187 33.0848 5.25808 27.0054 7.71956 21.5656C10.181 16.1258 14.3014 11.6048 19.4901 8.65067C22.8048 10.6559 28.9148 15.1848 27.3718 20.5828C26.3437 24.1811 24.4498 24.9891 22.4446 25.8445L22.4443 25.8446C20.1237 26.8345 17.4932 27.9568 17.4932 33.2095ZM29.9812 50.986C29.8562 51.1828 29.7898 51.4112 29.7898 51.6444C29.7898 51.8776 29.8562 52.106 29.9812 52.3028C30.1061 52.4997 30.2845 52.657 30.4955 52.7563L37.1633 55.8941V61.2371C34.6585 61.5636 32.1215 61.5549 29.619 61.2113C28.9803 52.3776 27.0494 47.9658 25.928 46.0965C24.6688 43.9971 24.4438 42.2425 25.3263 41.401C26.141 40.6236 27.7667 40.7123 29.1081 41.6067C31.5568 43.2391 33.7964 41.2057 35.5958 39.5715C38.1547 37.2476 39.4687 36.3824 41.3112 37.8571C43.1236 39.3071 43.3256 41.0994 42.0602 45.0903L30.4955 50.5326C30.2845 50.6318 30.1061 50.7891 29.9812 50.986Z" fill="#212769"/>
<path id="Union_2" fill-rule="evenodd" clip-rule="evenodd" d="M74.0242 59.0185H71.5663V52.874H67.2977L51.9038 60.1181L33.8984 51.6451L51.9038 43.1721L67.2977 50.4162H72.7953C73.1212 50.4162 73.4338 50.5456 73.6642 50.7761C73.8947 51.0066 74.0242 51.3191 74.0242 51.6451V59.0185ZM51.3784 62.5853C51.542 62.6624 51.7207 62.7024 51.9016 62.7023C52.0825 62.7024 52.2612 62.6624 52.4248 62.5853L64.1907 57.0484V68.1086C60.0975 70.2294 55.9664 71.3047 51.9016 71.3047C47.8368 71.3047 43.7057 70.2294 39.6125 68.1086V57.0484L51.3784 62.5853Z" fill="#80CE40"/>
<path id="Vector" d="M72.7957 66.3911C72.7957 66.3911 70.3379 67.62 70.3379 73.7645H75.2535C75.2535 67.62 72.7957 66.3911 72.7957 66.3911Z" fill="#80CE40"/>
<path id="Vector_2" d="M72.7957 66.3907C74.1531 66.3907 75.2535 65.2903 75.2535 63.9329C75.2535 62.5754 74.1531 61.475 72.7957 61.475C71.4383 61.475 70.3379 62.5754 70.3379 63.9329C70.3379 65.2903 71.4383 66.3907 72.7957 66.3907Z" fill="#80CE40"/>
</g>
</svg>
