<svg width="349" height="425" viewBox="0 0 349 425" fill="none" xmlns="http://www.w3.org/2000/svg">
<g clip-path="url(#clip0_1631_58937)">
<path d="M-54.2617 202.449C55.6194 169.054 80.5305 200.36 120.086 250.07M256.423 364.45C484.099 476.571 746.61 247.07 787.797 173.848C828.985 100.625 910.216 110.921 969.71 130.371M1201.09 241.854C1219.1 273.419 1276.36 295.366 1406.76 209.314M1207.22 238.459C1218.13 231.862 1226.2 223.768 1229.16 215.245C1231 209.931 1230.91 204.152 1227.73 199.03C1224.69 194.11 1219.46 190.858 1213.2 188.903C1207.61 187.157 1202.19 188.11 1197.82 191.3C1193.7 194.297 1191.02 198.871 1189.44 203.675C1186.81 211.641 1186.67 221.776 1189.44 231.867C1171.48 239.639 1145.68 244.612 1114.62 241.254C1075.4 237.014 1055.78 214.566 1038.09 189.154C1035.87 185.952 1033.64 182.66 1031.4 179.338C1024.87 169.678 1018.17 159.771 1010.73 151.133C1000.53 139.3 988.371 129.108 971.885 123.718C941.742 113.863 905.406 106.076 871.013 110.412C836.24 114.797 803.526 131.607 781.696 170.416C771.964 187.718 748.511 215.18 714.771 245.046C681.174 274.786 637.836 306.501 588.769 332.466C490.445 384.496 370.454 412.802 259.516 358.17C186.505 322.215 153.099 280.267 125.743 245.916C119.582 238.18 113.728 230.83 107.798 224.02C91.5661 205.379 74.4214 190.505 48.7247 184.487C23.3354 178.541 -9.35883 181.486 -56.2973 195.752L-52.2262 209.147C-6.1758 195.151 23.6924 193.003 45.5323 198.118C67.0649 203.161 81.8163 215.501 97.2403 233.214C102.815 239.615 108.432 246.68 114.432 254.227C141.852 288.715 177.283 333.279 253.33 370.729C370.069 428.218 495.171 397.835 595.318 344.84C645.486 318.292 689.729 285.91 724.051 255.529C758.231 225.273 783.037 196.589 793.898 177.28C813.256 142.866 841.752 128.213 872.765 124.302C904.158 120.344 938.184 127.429 967.535 137.025C980.795 141.36 990.942 149.616 1000.12 160.272C1006.99 168.237 1013.01 177.14 1019.39 186.585C1021.73 190.042 1024.11 193.571 1026.6 197.153C1044.95 223.512 1067.67 250.261 1113.11 255.173C1145.98 258.726 1173.99 253.65 1194.31 245.012L1194.41 245.266L1194.85 245.039C1204.45 262.091 1223.76 276.203 1255.37 276.764C1290.53 277.387 1340.68 261.304 1410.61 215.157L1402.9 203.472C1333.88 249.018 1286.61 263.316 1255.62 262.766C1229.1 262.295 1214.41 251.006 1207.22 238.459Z" stroke="white" stroke-width="14"/>
</g>
<defs>
<clipPath id="clip0_1631_58937">
<rect width="348.856" height="424.169" rx="16" fill="white"/>
</clipPath>
</defs>
</svg>
