<svg width="190" height="191" viewBox="0 0 190 191" fill="none" xmlns="http://www.w3.org/2000/svg">
<g id="Group">
<path id="Union" fill-rule="evenodd" clip-rule="evenodd" d="M72.0176 3.19588C71.9945 3.19815 71.9714 3.20044 71.9483 3.20275C30.6608 13.5246 -0.0078125 50.8765 -0.0078125 95.3571C-0.0078125 115.11 6.0071 134.268 17.5171 150.531C-10.5516 97.735 38.0836 40.3353 93.7751 37.5845L93.3297 71.1426L151.622 19.1619C135.88 7.35482 116.201 0.300293 94.9633 0.300293C87.0177 0.300293 79.3691 1.33991 72.0176 3.1221V3.19588ZM60.0629 183.871C40.3845 175.999 25.4586 160.257 19.2209 139.91H19.2951C13.1317 119.712 16.6218 97.8798 28.7259 80.5776C22.2655 102.929 29.023 127.063 46.2508 142.806C63.4787 158.549 88.1324 163.301 109.89 154.91C131.499 146.593 146.574 126.915 149.024 103.895C149.106 103.835 149.188 103.775 149.271 103.716L148.876 103.818L82.5632 120.897L173.084 41.3667C183.777 56.6639 189.941 75.3027 189.941 95.3524V95.7237H189.866C189.866 102.698 189.16 109.416 187.687 115.937C187.635 116.442 187.569 116.957 187.49 117.484C177.539 159.366 139.965 190.554 95.0384 190.554C82.7116 190.554 70.9045 188.178 60.0629 183.871Z" fill="white" fill-opacity="0.05"/>
</g>
</svg>
