<svg width="194" height="36" viewBox="0 0 194 36" fill="none" xmlns="http://www.w3.org/2000/svg">
<g clip-path="url(#clip0_1478_2288)">
<path fill-rule="evenodd" clip-rule="evenodd" d="M140.768 5.76562H140.613C138.991 5.76562 137.581 5.93437 136.354 6.25781C135.113 6.58125 134.084 7.18594 133.266 8.04375C132.434 8.91562 131.814 10.1531 131.39 11.7703C130.967 13.3875 130.756 15.4828 130.756 18.0562C130.756 20.6297 130.967 22.725 131.376 24.3281C131.785 25.9312 132.406 27.1687 133.252 28.0125C134.098 28.8703 135.127 29.4469 136.368 29.7703C137.609 30.0797 139.047 30.2344 140.697 30.2344C142.347 30.2344 143.799 30.0797 145.026 29.7703C146.267 29.4609 147.296 28.8703 148.128 28.0125C148.96 27.1547 149.567 25.9312 149.99 24.3281C150.399 22.725 150.61 20.6437 150.61 18.0562C150.61 15.4687 150.399 13.3875 149.99 11.7703C149.581 10.1531 148.96 8.91562 148.128 8.04375C147.296 7.17187 146.267 6.58125 145.026 6.25781C143.813 5.93437 142.389 5.76562 140.768 5.76562ZM97.6187 5.76562H97.52C95.6869 5.76562 94.1922 6.04688 93.0359 6.59531C91.8655 7.14375 90.9771 7.94531 90.3285 9C89.6939 10.0547 89.2427 11.3344 88.9889 12.8531C88.7351 14.3719 88.6223 16.0875 88.6223 18.0141C88.6223 19.9406 88.7351 21.5297 88.9466 23.0203C89.1581 24.5109 89.5388 25.8047 90.0888 26.8734C90.6246 27.9422 91.3861 28.7719 92.359 29.3484C93.332 29.925 94.5588 30.2062 96.0817 30.2062C97.4213 30.2062 98.6763 29.9953 99.8325 29.5875C100.989 29.1797 101.877 28.7859 102.498 28.4203L103.146 30.0516H106.756V16.3969C106.305 16.3547 105.797 16.3266 105.233 16.3266C104.683 16.3125 104.063 16.2984 103.358 16.2984C102.723 16.2984 102.075 16.3266 101.384 16.3547C100.707 16.3828 100.044 16.425 99.4095 16.4672C98.775 16.5094 98.2391 16.5656 97.7738 16.6359V20.4469H102.103V25.1297C101.609 25.2844 100.947 25.4391 100.129 25.5797C99.3108 25.7344 98.4506 25.8047 97.5764 25.8047C96.8008 25.8047 96.1381 25.6922 95.6022 25.4672C95.0664 25.2422 94.6434 24.8484 94.3191 24.2719C93.9947 23.6953 93.7691 22.9078 93.614 21.9094C93.473 20.9109 93.4025 19.6312 93.4025 18.0703C93.4025 16.0594 93.5294 14.4703 93.7832 13.3031C94.037 12.15 94.5165 11.3203 95.2356 10.8281C95.9407 10.35 96.9841 10.0969 98.3519 10.0969C99.3531 10.0969 100.312 10.125 101.243 10.1812C102.173 10.2375 103.019 10.2937 103.781 10.3641C104.542 10.4344 105.149 10.4906 105.6 10.5609V6.84844C104.768 6.6375 103.95 6.44062 103.132 6.28594C102.3 6.13125 101.426 6.00469 100.509 5.92031C99.621 5.83594 98.6339 5.79375 97.5623 5.77969L97.6187 5.76562ZM52.3828 11.4328V24.9609C52.3828 26.1703 52.5943 27.1266 52.9751 27.8156C53.3699 28.5188 53.8916 29.0391 54.5121 29.3906C55.1325 29.7422 55.7811 29.9531 56.458 30.0656C57.1348 30.1641 57.7271 30.2062 58.2488 30.2062C59.3064 30.2062 60.4345 30.1781 61.6189 30.1359C62.8034 30.0937 63.9738 30.0375 65.1442 29.9672C66.3005 29.8969 67.358 29.8125 68.331 29.7V25.6781H59.2359C58.8834 25.6781 58.559 25.6219 58.2347 25.4953C57.9245 25.3687 57.6707 25.1578 57.4874 24.8484C57.304 24.5391 57.2194 24.1031 57.2194 23.5266V20.2078L66.7658 19.9547V16.1437L57.2194 15.8766V12.4031C57.2194 11.7422 57.4028 11.2359 57.7694 10.9125C58.136 10.5891 58.6577 10.4203 59.3346 10.4203H68.331V6.39844C67.499 6.31406 66.5825 6.24375 65.5954 6.1875C64.5942 6.13125 63.4803 6.075 62.2253 6.03281C60.9703 5.99063 59.532 5.9625 57.9104 5.9625C57.2758 5.9625 56.6413 6.06094 55.9786 6.22969C55.3299 6.39844 54.7236 6.69375 54.1877 7.10156C53.6519 7.50938 53.2148 8.08594 52.8904 8.78906C52.5661 9.49219 52.411 10.3641 52.411 11.4047L52.3828 11.4328ZM138.229 25.5938C137.567 25.3828 137.045 24.9891 136.65 24.4406C136.255 23.8922 135.987 23.1047 135.818 22.0641C135.649 21.0375 135.578 19.7016 135.578 18.0562C135.578 16.3266 135.663 14.9344 135.846 13.8938C136.03 12.8531 136.326 12.0516 136.735 11.5031C137.13 10.9547 137.665 10.575 138.314 10.3781C138.977 10.1813 139.766 10.0828 140.697 10.0828C141.628 10.0828 142.488 10.1813 143.137 10.3781C143.785 10.575 144.307 10.9547 144.688 11.5031C145.068 12.0516 145.336 12.8531 145.52 13.8938C145.689 14.9344 145.788 16.3266 145.788 18.0562C145.788 19.7859 145.703 21.0516 145.52 22.0641C145.336 23.0906 145.068 23.8781 144.688 24.4406C144.307 24.9891 143.785 25.3828 143.137 25.5938C142.488 25.8187 141.67 25.9172 140.697 25.9172C139.724 25.9172 138.892 25.8047 138.229 25.5938ZM176.499 5.99063V30.0375H181.322V22.1766C181.604 22.2188 181.971 22.275 182.422 22.3313C182.873 22.3875 183.367 22.4438 183.902 22.5141C184.438 22.5844 184.96 22.6266 185.496 22.6688C186.018 22.6969 186.469 22.7109 186.864 22.7109C187.597 22.7109 188.358 22.6125 189.148 22.4156C189.924 22.2188 190.657 21.8391 191.334 21.2484C191.996 20.6719 192.546 19.8 192.983 18.675C193.406 17.55 193.618 16.0734 193.618 14.2594C193.618 12.4453 193.406 10.9828 192.983 9.87188C192.56 8.76094 192.01 7.94531 191.32 7.38281C190.643 6.83438 189.881 6.45469 189.077 6.27188C188.26 6.08906 187.456 5.99063 186.68 5.99063H176.514H176.499ZM181.336 10.3078H186.215C186.737 10.3078 187.188 10.4484 187.569 10.7016C187.949 10.9688 188.231 11.3906 188.443 11.9531C188.654 12.5297 188.753 13.3031 188.753 14.2875C188.753 15.2719 188.654 16.0734 188.457 16.6781C188.26 17.2687 187.964 17.7047 187.555 17.9719C187.16 18.2391 186.666 18.3797 186.102 18.3797H181.308V10.3219L181.336 10.3078ZM167.799 5.99063V22.275C167.799 23.1609 167.616 23.8641 167.263 24.3844C166.911 24.9047 166.389 25.2844 165.698 25.5234C165.021 25.7625 164.189 25.875 163.23 25.875C162.272 25.875 161.426 25.7625 160.735 25.5234C160.058 25.2844 159.522 24.9047 159.169 24.3844C158.817 23.8641 158.634 23.1609 158.634 22.275V5.99063H153.811V22.3031C153.811 23.9062 154.037 25.2281 154.516 26.2547C154.981 27.2812 155.644 28.0828 156.504 28.6594C157.364 29.2359 158.366 29.6297 159.522 29.8547C160.678 30.0797 161.905 30.1922 163.23 30.1922C164.556 30.1922 165.825 30.0797 166.967 29.8547C168.109 29.6297 169.096 29.2359 169.957 28.6594C170.803 28.0828 171.465 27.2812 171.945 26.2547C172.424 25.2281 172.664 23.9062 172.664 22.3031V5.99063H167.813H167.799ZM110.944 5.99063V30.0375H115.767V21.0656C116.049 21.0937 116.359 21.1078 116.711 21.1078H117.755C118.093 21.1078 118.432 21.1078 118.784 21.1219C119.123 21.1359 119.419 21.1359 119.687 21.1359L123.564 30.0375H128.486L123.987 20.3906C124.467 20.1937 124.932 19.9547 125.383 19.6453C125.835 19.35 126.244 18.9422 126.596 18.45C126.949 17.9578 127.245 17.3109 127.47 16.5375C127.682 15.7641 127.795 14.8078 127.795 13.7109C127.795 12.15 127.611 10.8703 127.259 9.87188C126.906 8.87344 126.399 8.1 125.778 7.52344C125.144 6.96094 124.425 6.56719 123.593 6.34219C122.761 6.11719 121.872 6.00469 120.928 6.00469H110.958L110.944 5.99063ZM115.767 10.3078H120.067C120.505 10.3078 120.899 10.3641 121.238 10.4625C121.576 10.5609 121.886 10.7297 122.154 10.9828C122.408 11.2359 122.606 11.5734 122.747 12.0234C122.888 12.4734 122.958 13.0359 122.958 13.6969C122.958 14.4141 122.888 14.9906 122.747 15.4547C122.606 15.9047 122.408 16.2844 122.154 16.5516C121.886 16.8188 121.59 17.0156 121.238 17.1141C120.885 17.2266 120.505 17.2828 120.067 17.2828H115.767V10.3219V10.3078ZM71.8421 30.0375H76.6647V5.99063H71.8421V30.0375Z" fill="url(#paint0_linear_1478_2288)"/>
<path d="M45.0367 3.38867H44.5996V32.5965H45.0367V3.38867Z" fill="#787677"/>
<path fill-rule="evenodd" clip-rule="evenodd" d="M4.49433 26.4212C5.67881 30.2744 8.5131 33.2556 12.2499 34.7462C14.3086 35.5619 16.5507 36.0119 18.8914 36.0119C27.4225 36.0119 34.5576 30.1056 36.4471 22.1744C37.1521 17.4916 32.2591 17.3369 29.1428 19.6009C28.6775 23.9603 25.815 27.6869 21.7116 29.2619C17.58 30.8509 12.8985 29.9509 9.62708 26.9697C6.35566 23.9884 5.07247 19.4181 6.29925 15.1853C4.0008 18.4619 3.33805 22.5962 4.50843 26.4212H4.49433Z" fill="url(#paint1_linear_1478_2288)"/>
<path fill-rule="evenodd" clip-rule="evenodd" d="M15.3677 0.492188H15.3113C15.0575 0.492188 14.7896 0.50625 14.5076 0.534375C6.66745 2.48906 0.84375 9.5625 0.84375 17.9859C0.84375 21.7266 1.98593 25.3547 4.17158 28.4344C-1.15859 18.4359 8.07754 7.56563 18.6533 7.04531C19.8095 4.33125 19.8659 0.492188 15.3677 0.492188Z" fill="url(#paint2_linear_1478_2288)"/>
<path fill-rule="evenodd" clip-rule="evenodd" d="M36.9134 18.053V17.9827C36.9134 14.1858 35.743 10.6562 33.7125 7.75928L16.5234 22.8202L29.1156 19.5858C32.0345 18.8405 36.5327 17.4343 36.4199 22.1593C36.7442 20.8374 36.8993 19.4733 36.8993 18.053H36.9134Z" fill="url(#paint3_linear_1478_2288)"/>
<path fill-rule="evenodd" clip-rule="evenodd" d="M14.5215 0.532568C18.7377 0.532568 18.7095 3.59819 18.6531 7.04351L18.5685 13.3998L29.6377 3.55601C26.6483 1.32007 22.9116 -0.0158691 18.8787 -0.0158691C17.3699 -0.0158691 15.9175 0.181006 14.5215 0.518506V0.532568Z" fill="url(#paint4_linear_1478_2288)"/>
</g>
<defs>
<linearGradient id="paint0_linear_1478_2288" x1="36.8718" y1="18" x2="205.731" y2="18" gradientUnits="userSpaceOnUse">
<stop stop-color="#00548C"/>
<stop offset="1" stop-color="#8ABD3F"/>
</linearGradient>
<linearGradient id="paint1_linear_1478_2288" x1="41.5657" y1="25.5916" x2="0.912687" y2="25.5916" gradientUnits="userSpaceOnUse">
<stop stop-color="#28387E"/>
<stop offset="1" stop-color="#6DC6D7"/>
</linearGradient>
<linearGradient id="paint2_linear_1478_2288" x1="19.1186" y1="0.970312" x2="-2.12229" y2="25.2153" gradientUnits="userSpaceOnUse">
<stop stop-color="#058C47"/>
<stop offset="1" stop-color="#F2E900"/>
</linearGradient>
<linearGradient id="paint3_linear_1478_2288" x1="50.6196" y1="15.2968" x2="15.6633" y2="15.2968" gradientUnits="userSpaceOnUse">
<stop stop-color="#28387E"/>
<stop offset="1" stop-color="#6DC6D7"/>
</linearGradient>
<linearGradient id="paint4_linear_1478_2288" x1="22.0796" y1="-8.18618" x2="22.0796" y2="13.3998" gradientUnits="userSpaceOnUse">
<stop stop-color="#058C47"/>
<stop offset="1" stop-color="#F2E900"/>
</linearGradient>
<clipPath id="clip0_1478_2288">
<rect width="192.774" height="36" fill="white" transform="translate(0.84375)"/>
</clipPath>
</defs>
</svg>
