<svg width="33" height="33" viewBox="0 0 33 33" fill="none" xmlns="http://www.w3.org/2000/svg">
<g id="svg1944184177_255">
<path id="Vector" d="M11.1723 10.7437H8.68898C7.14349 10.7437 6.37017 10.7437 5.77987 11.0445C5.26063 11.309 4.83878 11.7309 4.57421 12.2501C4.27344 12.8404 4.27344 13.6138 4.27344 15.1593V22.886C4.27344 24.4315 4.27344 25.2038 4.57421 25.7941C4.83878 26.3134 5.26063 26.736 5.77987 27.0005C6.36959 27.301 7.14198 27.301 8.68445 27.301H24.6984C26.2408 27.301 27.0121 27.301 27.6018 27.0005C28.1211 26.736 28.5443 26.3134 28.8089 25.7941C29.1094 25.2044 29.1094 24.4331 29.1094 22.8907V15.1547C29.1094 13.6122 29.1094 12.8399 28.8089 12.2501C28.5443 11.7309 28.1211 11.309 27.6018 11.0445C27.0115 10.7437 26.2399 10.7437 24.6944 10.7437H22.2105M11.1723 10.7437H22.2105M11.1723 10.7437C11.1723 7.69559 13.6433 5.22461 16.6914 5.22461C19.7395 5.22461 22.2105 7.69559 22.2105 10.7437" stroke="#63A147" stroke-width="2.67369" stroke-linecap="round" stroke-linejoin="round"/>
</g>
</svg>
