<svg width="33" height="33" viewBox="0 0 33 33" fill="none" xmlns="http://www.w3.org/2000/svg">
<g id="svg845500312_1517">
<path id="Vector" d="M29.6922 20.1602H23.6229C22.9138 20.1602 22.2337 20.4418 21.7323 20.9432C21.2309 21.4447 20.9492 22.1248 20.9492 22.8338V28.9031" stroke="#63A147" stroke-width="2.67369" stroke-linecap="round" stroke-linejoin="round"/>
<path id="Vector_2" d="M10.2539 4.57031V6.78947C10.2539 7.85314 10.6764 8.87324 11.4286 9.62537C12.1807 10.3775 13.2008 10.8 14.2645 10.8C14.9735 10.8 15.6536 11.0817 16.155 11.5832C16.6565 12.0845 16.9381 12.7646 16.9381 13.4738C16.9381 14.9443 18.1413 16.1474 19.6119 16.1474C20.321 16.1474 21.001 15.8658 21.5025 15.3643C22.0039 14.8629 22.2856 14.1828 22.2856 13.4738C22.2856 12.0032 23.4887 10.8 24.9592 10.8H29.1971" stroke="#63A147" stroke-width="2.67369" stroke-linecap="round" stroke-linejoin="round"/>
<path id="Vector_3" d="M15.6016 29.451V24.1705C15.6016 23.4613 15.3198 22.7812 14.8184 22.2799C14.317 21.7785 13.637 21.4967 12.9278 21.4967C12.2187 21.4967 11.5386 21.2151 11.0372 20.7136C10.5358 20.2122 10.2541 19.5322 10.2541 18.823V17.4862C10.2541 16.7771 9.97243 16.097 9.47101 15.5956C8.9696 15.0942 8.28954 14.8125 7.58043 14.8125H3.63672" stroke="#63A147" stroke-width="2.67369" stroke-linecap="round" stroke-linejoin="round"/>
<path id="Vector_4" d="M16.9427 29.5143C24.3259 29.5143 30.3111 23.529 30.3111 16.1459C30.3111 8.76263 24.3259 2.77734 16.9427 2.77734C9.55949 2.77734 3.57422 8.76263 3.57422 16.1459C3.57422 23.529 9.55949 29.5143 16.9427 29.5143Z" stroke="#63A147" stroke-width="2.67369" stroke-linecap="round" stroke-linejoin="round"/>
</g>
</svg>
