<svg width="349" height="293" viewBox="0 0 349 293" fill="none" xmlns="http://www.w3.org/2000/svg">
<path d="M-54.2617 93.4495C55.6194 60.0537 80.5305 91.3598 120.086 141.07M256.423 255.45C484.099 367.571 746.61 138.07 787.797 64.8479C828.985 -8.37469 910.216 1.92146 969.71 21.3712M1201.09 132.854C1219.1 164.419 1276.36 186.366 1406.76 100.314M1207.22 129.459C1218.13 122.862 1226.2 114.768 1229.16 106.245C1231 100.931 1230.91 95.1525 1227.73 90.0296C1224.69 85.11 1219.46 81.8582 1213.2 79.9035C1207.61 78.157 1202.19 79.1095 1197.82 82.3001C1193.7 85.2973 1191.02 89.8707 1189.44 94.6753C1186.81 102.641 1186.67 112.776 1189.44 122.867C1171.48 130.639 1145.68 135.612 1114.62 132.254C1075.4 128.014 1055.78 105.566 1038.09 80.1544C1035.87 76.9523 1033.64 73.6597 1031.4 70.3381C1024.87 60.6777 1018.17 50.7715 1010.73 42.1329C1000.53 30.3 988.371 20.1075 971.885 14.7177C941.742 4.86345 905.406 -2.9243 871.013 1.41241C836.24 5.79704 803.526 22.6075 781.696 61.416C771.964 78.7179 748.511 106.18 714.771 136.046C681.174 165.786 637.836 197.501 588.769 223.466C490.445 275.496 370.454 303.802 259.516 249.17C186.505 213.215 153.099 171.267 125.743 136.916C119.582 129.18 113.728 121.83 107.798 115.02C91.5661 96.379 74.4214 81.5048 48.7247 75.4869C23.3354 69.5409 -9.35883 72.4862 -56.2973 86.752L-52.2262 100.147C-6.1758 86.1511 23.6924 84.0033 45.5323 89.118C67.0649 94.1608 81.8163 106.501 97.2403 124.214C102.815 130.615 108.432 137.68 114.432 145.227C141.852 179.715 177.283 224.279 253.33 261.729C370.069 319.218 495.171 288.835 595.318 235.84C645.486 209.292 689.729 176.91 724.051 146.529C758.231 116.273 783.037 87.589 793.898 68.2797C813.256 33.8657 841.752 19.2129 872.765 15.3024C904.158 11.344 938.184 18.4292 967.535 28.0247C980.795 32.3597 990.942 40.6159 1000.12 51.2717C1006.99 59.2366 1013.01 68.1399 1019.39 77.5849C1021.73 81.0415 1024.11 84.5707 1026.6 88.153C1044.95 114.512 1067.67 141.261 1113.11 146.173C1145.98 149.726 1173.99 144.65 1194.31 136.012L1194.41 136.266L1194.85 136.039C1204.45 153.091 1223.76 167.203 1255.37 167.764C1290.53 168.387 1340.68 152.304 1410.61 106.157L1402.9 94.4715C1333.88 140.018 1286.61 154.316 1255.62 153.766C1229.1 153.295 1214.41 142.006 1207.22 129.459Z" stroke="white" stroke-width="14"/>
</svg>
