<svg width="36" height="31" viewBox="0 0 36 31" fill="none" xmlns="http://www.w3.org/2000/svg">
<path id="Vector" d="M1.89453 29.2809H5.10313M5.10313 29.2809H21.1461M5.10313 29.2809V7.14188C5.10313 5.3449 5.10313 4.44573 5.45284 3.75938C5.76046 3.15564 6.25096 2.66515 6.85469 2.35753C7.54105 2.00781 8.44021 2.00781 10.2372 2.00781H16.0127C17.8096 2.00781 18.7069 2.00781 19.3932 2.35753C19.997 2.66515 20.4891 3.15564 20.7967 3.75938C21.1461 4.44506 21.1461 5.34314 21.1461 7.13661V16.4465M21.1461 29.2809H30.7719M21.1461 29.2809V16.4465M30.7719 29.2809H33.9805M30.7719 29.2809V16.4465C30.7719 14.9515 30.7717 14.2043 30.5275 13.6147C30.2018 12.8285 29.5778 12.2035 28.7916 11.8778C28.2019 11.6336 27.4536 11.6336 25.9586 11.6336C24.4636 11.6336 23.716 11.6336 23.1264 11.8778C22.3402 12.2035 21.716 12.8285 21.3903 13.6147C21.1461 14.2043 21.1461 14.9515 21.1461 16.4465M9.91602 13.2379H16.3332M9.91602 8.425H16.3332" stroke="#63A147" stroke-width="2.67369" stroke-linecap="round" stroke-linejoin="round"/>
</svg>
