<svg width="21" height="20" viewBox="0 0 21 20" fill="none" xmlns="http://www.w3.org/2000/svg">
<g id="Calendar / Calendar">
<path id="Vector" d="M4.25879 6.66675H17.5921M4.25879 6.66675V14.0002C4.25879 14.9337 4.25879 15.4001 4.44044 15.7567C4.60023 16.0703 4.85502 16.3255 5.16862 16.4853C5.52479 16.6667 5.99128 16.6667 6.92288 16.6667H14.928C15.8596 16.6667 16.3254 16.6667 16.6816 16.4853C16.9952 16.3255 17.2509 16.0703 17.4106 15.7567C17.5921 15.4005 17.5921 14.9347 17.5921 14.0031V6.66675M4.25879 6.66675V6.00024C4.25879 5.06682 4.25879 4.59977 4.44044 4.24325C4.60023 3.92964 4.85502 3.67486 5.16862 3.51507C5.52514 3.33341 5.9922 3.33341 6.92562 3.33341H7.59212M17.5921 6.66675V5.99751C17.5921 5.06591 17.5921 4.59942 17.4106 4.24325C17.2509 3.92964 16.9952 3.67486 16.6816 3.51507C16.3251 3.33341 15.859 3.33341 14.9256 3.33341H14.2588M14.2588 1.66675V3.33341M14.2588 3.33341H7.59212M7.59212 1.66675V3.33341" stroke="#88888E" stroke-width="1.25" stroke-linecap="round" stroke-linejoin="round"/>
</g>
</svg>
